<svg width="32" height="32" viewBox="0 0 32 32" fill="none" xmlns="http://www.w3.org/2000/svg">
<path d="M5.07997 23.4412L5.09062 23.4256L5.10006 23.4092L12.4334 10.6625L12.5 10.5467V10.4132V7.99984V7.49984H12C11.779 7.49984 11.567 7.41204 11.4107 7.25576C11.2545 7.09948 11.1667 6.88752 11.1667 6.6665V5.33317C11.1667 4.75854 11.3949 4.20743 11.8013 3.80111C12.2076 3.39478 12.7587 3.1665 13.3333 3.1665H18.6667C19.2413 3.1665 19.7924 3.39478 20.1987 3.80111C20.6051 4.20743 20.8333 4.75854 20.8333 5.33317V6.6665C20.8333 6.88752 20.7455 7.09948 20.5893 7.25576C20.433 7.41204 20.221 7.49984 20 7.49984H19.5V7.99984V10.4132V10.5467L19.5666 10.6625L26.8999 23.4092L26.9094 23.4256L26.92 23.4412C27.2911 23.9862 27.5 24.6351 27.5 25.3332C27.5 26.2614 27.1313 27.1517 26.4749 27.808C25.8185 28.4644 24.9283 28.8332 24 28.8332H8C7.07174 28.8332 6.1815 28.4644 5.52513 27.808C4.86875 27.1517 4.5 26.2614 4.5 25.3332C4.5 24.6351 4.70893 23.9862 5.07997 23.4412ZM21.6864 18.9396L18.6667 21.9594L12.2602 15.553L11.7993 15.092L11.4736 15.6566L6.48267 24.3075C6.29067 24.5938 6.16667 24.9512 6.16667 25.3332C6.16667 25.8194 6.35982 26.2857 6.70364 26.6295C7.04746 26.9734 7.51377 27.1665 8 27.1665H24C24.4862 27.1665 24.9525 26.9734 25.2964 26.6295C25.6402 26.2857 25.8333 25.8194 25.8333 25.3332C25.8333 24.9511 25.7093 24.5936 25.5172 24.3073L22.4728 19.0429L22.1469 18.4792L21.6864 18.9396ZM17.3333 12.8332C16.8471 12.8332 16.3808 13.0263 16.037 13.3701C15.6932 13.714 15.5 14.1803 15.5 14.6665C15.5 15.1527 15.6932 15.6191 16.037 15.9629C16.3808 16.3067 16.8471 16.4998 17.3333 16.4998C17.8196 16.4998 18.2859 16.3067 18.6297 15.9629C18.9735 15.6191 19.1667 15.1527 19.1667 14.6665C19.1667 14.1803 18.9735 13.714 18.6297 13.3701C18.2859 13.0263 17.8196 12.8332 17.3333 12.8332Z" fill="#A0D1CA" stroke="#A0D1CA"/>
</svg>
