<svg width="32" height="32" viewBox="0 0 32 32" fill="none" xmlns="http://www.w3.org/2000/svg">
<path d="M14.8971 12.2694C15.3351 12.4197 15.8147 12.4998 16.3279 12.4998C17.5834 12.4998 18.6661 12.0415 19.4259 11.2123L19.4262 11.2119C20.1649 10.4041 20.4946 9.35725 20.4946 8.33317C20.4946 7.93534 20.3365 7.55381 20.0552 7.27251C19.7739 6.99121 19.3924 6.83317 18.9946 6.83317C18.5967 6.83317 18.2152 6.99121 17.9339 7.27251C17.6526 7.55382 17.4946 7.93535 17.4946 8.33317C17.4946 8.73057 17.3689 9.01598 17.2124 9.18755C17.0754 9.33651 16.8241 9.49984 16.3279 9.49984C15.8747 9.49984 15.6378 9.34662 15.4891 9.18129C15.3006 8.95046 15.1879 8.66706 15.1666 8.36987V5.6665C15.1666 5.00346 15.4299 4.36758 15.8988 3.89874C16.3676 3.4299 17.0035 3.1665 17.6666 3.1665H21.9132C22.4994 3.1665 23.0725 3.32883 23.5708 3.6361L23.5712 3.63636L27.2619 5.90703L27.5239 5.48117L27.2619 5.90703C27.3346 5.95179 27.3947 6.01445 27.4364 6.08902C27.478 6.1636 27.4999 6.2476 27.4999 6.33303V6.33317V8.33317C27.4999 8.99621 27.2365 9.6321 26.7677 10.1009C26.2988 10.5698 25.6629 10.8332 24.9999 10.8332H24.6666H24.1666V11.3332V24.0438V24.4983L24.6189 24.5416C25.7798 24.6526 26.5384 24.9919 26.9893 25.6202L14.8971 12.2694ZM14.8971 12.2694C14.8797 12.3698 14.8613 12.4709 14.8416 12.5727C14.5165 14.2732 13.8757 16.0657 12.6439 17.3149L12.6439 17.3149C11.2077 18.771 10.5162 20.8893 10.1755 22.5806C9.98995 23.5155 9.8772 24.4634 9.83827 25.4157L9.83322 25.5962V25.6358V25.6554L9.83169 25.6749C9.80179 26.0566 9.70078 26.4293 9.53386 26.7738L9.53269 26.7763C9.39444 27.0577 9.19997 27.3173 8.93067 27.5072L8.93053 27.5072C8.66461 27.6946 8.29865 27.8331 7.77761 27.8332M14.8971 12.2694L7.77761 27.8332M27.444 26.8984C27.3854 26.4486 27.265 26.0055 26.9896 25.6206L27.444 26.8984ZM27.444 26.8984C27.4992 27.3303 27.4999 27.8094 27.4999 28.2878V28.3332C27.4999 28.4658 27.4472 28.593 27.3534 28.6867C27.2597 28.7805 27.1325 28.8332 26.9999 28.8332H23.1639V28.3012L23.1639 28.2822C23.164 27.5329 23.1645 25.2531 21.1639 23.8112V20.3372C21.1639 19.9393 21.0059 19.5578 20.7245 19.2765C20.4432 18.9952 20.0617 18.8372 19.6639 18.8372C19.2661 18.8372 18.8845 18.9952 18.6032 19.2765C18.3219 19.5578 18.1639 19.9393 18.1639 20.3372V22.8251C18.0167 22.8216 17.8693 22.823 17.7221 22.8292C17.6851 22.8297 17.6507 22.8318 17.6312 22.8332H17.6159H17.5349L17.5111 22.8411C17.1416 22.8796 16.7985 23.054 16.5494 23.332C16.2838 23.6283 16.1469 24.0179 16.1686 24.4152C16.1904 24.8124 16.3691 25.1848 16.6653 25.4503C16.9579 25.7125 17.3415 25.8494 17.7335 25.8318H17.7444L17.7636 25.8304L17.7717 25.8297L17.8292 25.8274L17.8292 25.8275L17.8336 25.8272C17.8779 25.8251 17.9387 25.8238 17.9972 25.8238C18.5208 25.8238 18.812 25.9128 18.9673 25.9938L18.9696 25.995L19.0136 26.0177L19.0224 26.0222L19.0314 26.0264C19.5939 26.2884 19.8618 26.6603 20.0025 27.0496C20.1517 27.4626 20.1639 27.911 20.1639 28.3332V28.8332H7.77722H7.77679C6.76747 28.834 5.78575 28.5037 4.98228 27.8928C4.17881 27.282 3.59798 26.4243 3.32893 25.4515C3.05989 24.4787 3.11749 23.4445 3.49289 22.5076L3.02912 22.3218L3.49289 22.5076C3.8683 21.5707 4.54076 20.7829 5.4071 20.265L5.40776 20.2646C5.52159 20.1963 5.65789 20.1761 5.78667 20.2083C5.91545 20.2405 6.02616 20.3225 6.09444 20.4364C6.16273 20.5502 6.183 20.6865 6.15079 20.8153C6.11862 20.9439 6.03675 21.0545 5.92315 21.1228C5.92299 21.1229 5.92284 21.123 5.92269 21.1231L6.17989 21.5518C5.59518 21.901 5.14122 22.4325 4.8877 23.0646C4.63419 23.6966 4.59511 24.3945 4.77648 25.0509C4.95785 25.7074 5.34964 26.2861 5.89171 26.6984M27.444 26.8984L5.89171 26.6984M5.89171 26.6984L5.58903 27.0964C6.21823 27.5749 6.9871 27.8338 7.77761 27.8332M5.89171 26.6984L7.77761 27.8332" fill="#A0D1CA" stroke="#A0D1CA"/>
</svg>
