<svg width="32" height="32" viewBox="0 0 32 32" fill="none" xmlns="http://www.w3.org/2000/svg">
<path d="M10.9334 23.396C10.1789 23.3688 9.43156 23.2262 8.71754 22.9719C7.76246 22.6318 6.88746 22.099 6.14682 21.4067C5.40618 20.7143 4.81571 19.8772 4.41205 18.9471C4.00838 18.0171 3.80012 17.0141 3.8002 16.0002V16.0002V10.1362C3.8002 9.28837 4.48837 8.6002 5.3362 8.6002H11.2002C13.5251 8.6002 15.5996 9.67168 16.9571 11.3506C15.0676 12.1208 13.4508 13.4395 12.3163 15.1362L10.591 13.4097L10.5909 13.4095C10.3281 13.1468 9.97177 12.9992 9.6002 12.9992C9.22863 12.9992 8.87227 13.1468 8.60953 13.4095C8.34679 13.6723 8.19918 14.0286 8.19918 14.4002C8.19918 14.7718 8.34679 15.1281 8.60953 15.3909L8.60966 15.391L11.0423 17.8222C10.7485 18.7868 10.5993 19.7904 10.6002 20.8002L10.9334 23.396ZM10.9334 23.396C10.7162 22.5667 10.6002 21.6971 10.6002 20.8008L10.9334 23.396ZM15.6973 26.1874L16.1175 26.5308C17.2019 27.4171 18.5156 27.9774 19.9059 28.1466C21.2961 28.3159 22.7059 28.0872 23.9713 27.487C25.2367 26.8868 26.3058 25.9399 27.0544 24.7562C27.803 23.5726 28.2003 22.2008 28.2002 20.8003V20.8002V14.9362C28.2002 14.0884 27.512 13.4002 26.6642 13.4002H20.8002C18.8376 13.4002 16.9554 14.1798 15.5676 15.5676C14.1798 16.9554 13.4002 18.8376 13.4002 20.8002V20.801C13.398 22.5077 13.9884 24.1623 15.0706 25.4822L15.4152 25.9025L15.0309 26.2869L13.4597 27.8581L13.4594 27.8584C13.4217 27.8959 13.4006 27.9469 13.4006 28.0001C13.4005 28.0532 13.4216 28.1042 13.4592 28.1418C13.4967 28.1795 13.5477 28.2006 13.6009 28.2006C13.6539 28.2007 13.7047 28.1797 13.7423 28.1423L15.6973 26.1874ZM15.6973 26.1874L15.3135 26.5711L13.7426 28.142L15.6973 26.1874ZM17.5997 3.8002H17.6002H23.4642C24.312 3.8002 25.0002 4.48837 25.0002 5.3362V10.6002H20.8002H20.7999C20.4932 10.6003 20.1867 10.6142 19.8814 10.6417C19.0041 9.2204 17.7898 8.03449 16.3438 7.19054C15.147 6.49208 13.8244 6.04708 12.4579 5.87767C12.9973 5.3559 13.6148 4.91776 14.2901 4.58008C15.3177 4.06631 16.4509 3.79928 17.5997 3.8002ZM16.5074 26.3301L16.9254 26.6546L17.2996 26.2805L22.5906 20.9912C22.8534 20.7287 23.0012 20.3726 23.0014 20.0012C23.0017 19.6298 22.8544 19.2735 22.592 19.0106C22.3295 18.7478 21.9734 18.6 21.602 18.5998C21.2306 18.5995 20.8743 18.7468 20.6114 19.0092L20.6111 19.0095L15.3199 24.3007L14.9457 24.675L15.2703 25.093C15.629 25.555 16.0454 25.9714 16.5074 26.3301Z" fill="#A0D1CA" stroke="#A0D1CA" stroke-width="1.2"/>
</svg>
